<?xml version="1.0" standalone="no"?><!DOCTYPE svg PUBLIC "-//W3C//DTD SVG 1.1//EN" "http://www.w3.org/Graphics/SVG/1.1/DTD/svg11.dtd"><svg t="1591406207894" class="icon" viewBox="0 0 1024 1024" version="1.1" xmlns="http://www.w3.org/2000/svg" p-id="6690" xmlns:xlink="http://www.w3.org/1999/xlink" width="128" height="128"><defs><style type="text/css"></style></defs><path d="M622.93886 652.795468a30.167962 30.167962 0 0 1 31.73496 32.243959v127.957839a32.285959 32.285959 0 0 1-64.021919 0V685.039427a30.209962 30.209962 0 0 1 32.286959-32.243959zM193.983401 512.000645a23.51497 23.51497 0 0 0 19.447975-6.651992l210.875734-204.731742L539.469965 409.633774a31.183961 31.183961 0 0 0 45.039944 0l198.12275-191.936758v38.387951a51.182936 51.182936 0 0 0 12.709984 25.421968 32.751959 32.751959 0 0 0 25.422968 12.709984 30.209962 30.209962 0 0 0 32.242959-32.242959v-114.399856c0-25.420968-6.651992-32.242959-25.421968-32.242959H699.627764a30.209962 30.209962 0 0 0-32.24296 32.243959 30.167962 30.167962 0 0 0 32.24296 31.73496h31.73596L565.059933 345.654855 449.899078 237.356991a30.675961 30.675961 0 0 0-44.530944 0l-230.832709 223.459718a30.675961 30.675961 0 0 0 0 44.530944c0 6.651992 12.710984 6.651992 19.447976 6.651992z m633.179202 12.710984a30.209962 30.209962 0 0 0-31.73596 32.285959v255.915678a32.243959 32.243959 0 0 0 63.979919 0V556.996588c-6.652992-19.489975-18.939976-32.285959-32.243959-32.285959zM385.920159 492.55167v319.936596a32.243959 32.243959 0 1 0 63.978919 0V492.55167a32.243959 32.243959 0 0 0-63.978919 0z m608.095234 467.342411H98.270521a30.209962 30.209962 0 0 1-32.243959-32.24396V32.413249A30.209962 30.209962 0 0 0 34.290602 0.08429 30.209962 30.209962 0 0 0 1.920643 32.413249v927.480832a60.419924 60.419924 0 0 0 63.977919 63.978919h927.904831a32.243959 32.243959 0 0 0 0-63.978919zM181.187417 620.933508V812.870266a30.209962 30.209962 0 0 0 32.243959 31.73496 30.209962 30.209962 0 0 0 31.73496-31.73496V620.933508a30.209962 30.209962 0 0 0-31.73496-32.28596 30.251962 30.251962 0 0 0-32.243959 32.28596z" p-id="6691" fill="#ffffff"></path></svg>