<?xml version="1.0" standalone="no"?><!DOCTYPE svg PUBLIC "-//W3C//DTD SVG 1.1//EN" "http://www.w3.org/Graphics/SVG/1.1/DTD/svg11.dtd"><svg t="1590637131459" class="icon" viewBox="0 0 1024 1024" version="1.1" xmlns="http://www.w3.org/2000/svg" p-id="10713" xmlns:xlink="http://www.w3.org/1999/xlink" width="128" height="128"><defs><style type="text/css"></style></defs><path d="M508.523 957.623 97.338 957.623c-41.283 0-74.833-33.572-74.833-74.829L22.505 108.373c0-41.278 33.55-74.833 74.833-74.833l637.979 0c41.278 0 74.829 33.556 74.829 74.833L810.146 464.4l-40.818 0L769.328 108.373c0-18.749-15.268-34.016-34.011-34.016L97.338 74.357c-18.749 0-34.016 15.267-34.016 34.016l0 774.421c0 18.744 15.268 34.011 34.016 34.011l411.185 0L508.523 957.623z" p-id="10714" fill="#ffffff"></path><path d="M141.345 217.223 637.84 217.223l0 40.823L141.345 258.046 141.345 217.223z" p-id="10715" fill="#ffffff"></path><path d="M141.345 397.509l355.042 0 0 40.817L141.345 438.326 141.345 397.509z" p-id="10716" fill="#ffffff"></path><path d="M141.345 578.904l213.59 0 0 40.828-213.59 0L141.345 578.904 141.345 578.904z" p-id="10717" fill="#ffffff"></path><path d="M756.323 1008.461c-134.106 0-243.203-109.102-243.203-243.197 0-134.107 109.097-243.197 243.203-243.197s243.197 109.09 243.197 243.197C999.521 899.359 890.398 1008.461 756.323 1008.461zM756.323 562.904c-111.604 0-202.38 90.787-202.38 202.38 0 111.604 90.775 202.38 202.38 202.38 111.593 0 202.38-90.775 202.38-202.38C958.703 653.691 867.896 562.904 756.323 562.904z" p-id="10718" fill="#ffffff"></path><path d="M749.978 899.308c-11.268 0-20.409-9.142-20.409-20.409L729.569 745.127c0-11.268 9.142-20.408 20.409-20.408 11.267 0 20.409 9.141 20.409 20.408l0 133.771C770.387 890.166 761.244 899.308 749.978 899.308z" p-id="10719" fill="#ffffff"></path><path d="M747.862 782.269c-4.681 0-9.362-1.581-13.173-4.816-8.598-7.288-9.666-20.168-2.398-28.765l75.32-89.038c7.268-8.629 20.168-9.665 28.766-2.398 8.607 7.299 9.664 20.168 2.397 28.765l-75.32 89.039C759.422 779.818 753.652 782.269 747.862 782.269z" p-id="10720" fill="#ffffff"></path><path d="M753.789 782.102c-5.77 0-11.539-2.439-15.539-7.205l-75.457-88.901c-7.32-8.607-6.23-21.477 2.335-28.765 8.544-7.268 21.497-6.262 28.765 2.335l75.467 88.901c7.32 8.607 6.23 21.478-2.346 28.766C763.182 780.531 758.47 782.102 753.789 782.102z" p-id="10721" fill="#ffffff"></path><path d="M808.293 797.693l-116.6 0c-11.268 0-20.408-9.142-20.408-20.408 0-11.268 9.141-20.409 20.408-20.409l116.6 0c11.267 0 20.408 9.142 20.408 20.409C828.701 788.552 819.56 797.693 808.293 797.693z" p-id="10722" fill="#ffffff"></path><path d="M808.293 847.442l-116.6 0c-11.268 0-20.408-9.142-20.408-20.408 0-11.268 9.141-20.409 20.408-20.409l116.6 0c11.267 0 20.408 9.142 20.408 20.409C828.701 838.301 819.56 847.442 808.293 847.442z" p-id="10723" fill="#ffffff"></path></svg>