<?xml version="1.0" standalone="no"?><!DOCTYPE svg PUBLIC "-//W3C//DTD SVG 1.1//EN" "http://www.w3.org/Graphics/SVG/1.1/DTD/svg11.dtd"><svg t="1590637463451" class="icon" viewBox="0 0 1024 1024" version="1.1" xmlns="http://www.w3.org/2000/svg" p-id="24354" xmlns:xlink="http://www.w3.org/1999/xlink" width="128" height="128"><defs><style type="text/css"></style></defs><path d="M858.530909 1000.727273H165.469091c-39.796364 0-73.076364-29.789091-77.498182-69.585455l-64.465454-602.763636A23.272727 23.272727 0 1 1 69.818182 323.490909l64.465454 602.763636c1.629091 15.825455 15.127273 27.927273 31.185455 27.927273H858.763636c16.058182 0 29.323636-12.101818 31.185455-27.927273l64.698182-602.996363c1.396364-12.8 12.567273-22.109091 25.6-20.712727a23.272727 23.272727 0 0 1 20.712727 25.6l-64.698182 602.996363A77.963636 77.963636 0 0 1 858.530909 1000.727273z" p-id="24355" fill="#ffffff"></path><path d="M718.196364 93.090909c14.661818 0 26.530909 11.869091 26.530909 26.530909v645.352727c0 14.661818-11.869091 26.530909-26.530909 26.53091H305.803636C291.141818 791.272727 279.272727 779.403636 279.272727 764.741818V119.621818c0-14.661818 11.869091-26.530909 26.530909-26.530909h412.392728m0-46.545454H305.803636C265.309091 46.545455 232.727273 79.127273 232.727273 119.621818v645.352727C232.727273 805.236364 265.309091 837.818182 305.803636 837.818182h412.625455C758.690909 837.818182 791.272727 805.236364 791.272727 764.741818V119.621818C791.272727 79.127273 758.690909 46.545455 718.196364 46.545455z" p-id="24356" fill="#ffffff"></path><path d="M768 232.727273H279.272727v46.545454h488.727273v-46.545454zM768 418.909091H279.272727v46.545454h488.727273v-46.545454zM768 581.818182H279.272727v46.545454h488.727273v-46.545454z" p-id="24357" fill="#ffffff"></path></svg>