<svg t="1600755681391" class="icon" viewBox="0 0 1024 1024" version="1.1" xmlns="http://www.w3.org/2000/svg" p-id="2133" width="32" height="32"><path d="M229.0629 215.363981h510.430863v75.595457H229.0629z m0 196.488191h510.430863v75.595457H229.0629z m0 200.087976h226.832522v75.618532H229.0629z" p-id="2134" fill="#707070"></path><path d="M437.365766 945.104741H106.23182V75.618533h756.139174v411.829096a37.797729 37.797729 0 1 0 75.595457 0V75.618533A75.687759 75.687759 0 0 0 862.370994 0H106.23182A75.710835 75.710835 0 0 0 30.613288 75.618533v869.486208a75.710835 75.710835 0 0 0 75.618532 75.687759h331.133946a37.820804 37.820804 0 1 0 0-75.618532z" p-id="2135" fill="#707070"></path><path d="M977.656374 942.335677l-101.047774-102.939968a199.141878 199.141878 0 1 0-51.943032 54.942852L923.636543 995.317108a37.848495 37.848495 0 0 0 53.97368-53.073733zM709.034056 856.240851a122.877231 122.877231 0 1 1 122.87723-122.877231A122.992609 122.992609 0 0 1 709.034056 856.240851z" p-id="2136" fill="#707070"></path></svg>