<?xml version="1.0" standalone="no"?><!DOCTYPE svg PUBLIC "-//W3C//DTD SVG 1.1//EN" "http://www.w3.org/Graphics/SVG/1.1/DTD/svg11.dtd"><svg t="1593424173755" class="icon" viewBox="0 0 1024 1024" version="1.1" xmlns="http://www.w3.org/2000/svg" p-id="662" xmlns:xlink="http://www.w3.org/1999/xlink" width="200" height="200"><defs><style type="text/css"></style></defs><path d="M604.672 262.656l-78.336 172.032h-15.872l-78.848-172.032h-47.104l78.336 172.032h-78.336v47.104h110.08v78.336h-110.08v47.104h110.08v78.336h47.104v-78.336h110.08v-47.104h-110.08v-78.336h110.08v-47.104H573.44l78.336-172.032h-47.104z" fill="#111110" p-id="663"></path><path d="M876.544 114.176c-7.168-5.12-75.264-49.152-365.056-49.152s-358.4 44.544-365.056 49.152c-10.24 7.68-17.408 22.016-17.408 34.816v364.032c0 222.72 347.648 430.592 362.496 439.296 5.632 3.072 12.8 5.12 19.968 5.12s14.336-2.048 19.968-5.12c14.848-8.704 362.496-216.576 362.496-439.296V148.992c0.512-12.8-7.168-27.648-17.408-34.816zM860.16 513.024c0 203.776-342.528 408.064-345.6 410.112 0 0-1.024 0.512-2.56 0.512l-2.56-0.512c-3.584-2.048-345.6-206.336-345.6-410.112V148.992c0-2.048 2.048-6.656 3.584-7.68 0.512-0.512 67.072-43.008 345.088-43.008S856.576 140.8 857.088 140.8c1.536 1.024 3.584 5.632 3.584 7.68l-0.512 364.544z" fill="#111110" p-id="664"></path></svg>