<?xml version="1.0" standalone="no"?><!DOCTYPE svg PUBLIC "-//W3C//DTD SVG 1.1//EN" "http://www.w3.org/Graphics/SVG/1.1/DTD/svg11.dtd"><svg t="1587441225646" class="icon" viewBox="0 0 1438 1024" version="1.1" xmlns="http://www.w3.org/2000/svg" p-id="5302" xmlns:xlink="http://www.w3.org/1999/xlink" width="280.859375" height="200"><defs><style type="text/css"></style></defs><path d="M370.249143 655.36L64.463238 538.136381c-15.043048-6.070857-24.259048-24.941714-18.18819-39.984762l24.478476-62.342095c-11.312762 1.048381-22.406095-0.121905-33.475048-1.26781l-18.895238 51.736381c-12.336762 32.280381 4.096 67.584 34.206476 79.725715l254.000762 98.32838c17.968762-0.341333 45.007238-1.974857 63.658667-8.97219z m79.676952 30.744381c-13.775238 3.047619-27.550476 6.070857-38.375619 2.681905-8.630857-3.145143-14.336-12.678095-15.408762-23.990857l-21.455238-8.972191-22.723047 24.478476 305.785904 117.199238c11.776-5.461333 26.014476-12.921905 39.984762-18.18819l-247.808-93.208381zM76.751238 419.279238L211.456 69.144381c6.022095-14.921143 24.771048-24.064 39.740952-18.041905L1218.072381 421.497905c-5.436952-11.678476-3.82781-27.062857-3.145143-33.645715L299.25181 38.375619c5.680762 9.48419 13.55581 19.18781 21.674666 26.721524-16.920381-8.46019-48.761905-22.918095-64.316952-44.519619C226.255238 12.921905 193.609143 27.282286 183.759238 57.344L49.054476 407.478857c8.338286 5.315048 16.920381 8.43581 27.696762 11.800381z m1150.537143 549.644191c-7.070476 3.705905-16.091429 4.973714-24.673524 1.852952L834.681905 829.927619c-34.523429-10.313143-88.868571-22.674286-146.529524-24.307809l504.856381 193.024c4.169143 2.657524 10.776381 3.34019 15.189333 3.803428 3.120762-8.533333 11.117714-21.040762 19.090286-33.523809z m99.547429-227.230477s8.118857 7.533714 20.626285 15.506286l83.212191-220.062476c12.263619-32.036571-4.071619-67.047619-33.962667-79.09181l-173.202286-67.072c18.651429 13.06819 56.198095 37.010286 99.742477 46.031238-11.459048 3.242667-31.744 5.534476-49.566477 5.900191l111.201524 42.788571c14.945524 5.997714 24.112762 24.746667 18.090667 39.643429l-156.355048 407.844571c2.56 18.041905 2.438095 40.228571-4.022857 59.562667 9.728-7.875048 19.675429-17.92 25.453714-30.646857l67.364572-175.055238c-14.238476-12.629333-8.582095-45.348571-8.582095-45.348572z" fill="#FF3158" p-id="5303"></path><path d="M468.821333 435.346286c-11.459048 22.820571-22.25981 39.131429-30.354285 51.370666-10.337524 12.01981-24.259048 14.921143-43.76381 6.339048l-168.228571-61.342476c-19.72419-6.436571-25.088-20.089905-18.553905-39.058286-10.313143-9.801143-18.383238-19.382857-18.383238-19.382857s11.459048-0.975238 27.599238-3.657143l30.598095-75.337143 202.971429 75.897905-8.996572 20.870095 28.281905 11.702857 61.635048-154.989714-274.724572-105.252571-9.459809 25.185523 244.467809 91.160381-33.987047 85.894096-202.971429-75.897905 18.456381-46.08-28.281905-11.678476-67.925333 171.78819c-12.848762 35.766857-3.900952 58.514286 31.085714 70.924191l181.223619 67.047619c30.500571 11.946667 56.07619 5.90019 72.045715-16.432762a1486.019048 1486.019048 0 0 0 32.597333-51.126857c-10.971429-3.34019-19.285333-10.727619-25.356191-17.944381z" fill="#FF3158" p-id="5304"></path><path d="M725.77219 363.812571l88.210286 37.449143 14.57981-34.328381 24.576 10.410667-14.57981 34.352762 92.574476 39.302095-9.849904 23.210667-92.574477-39.277714-13.58019 31.963428 78.750476 33.450667-40.423619 95.256381-80.115809-34.011429c-15.555048 29.159619-31.134476 49.980952-47.372191 62.927238 25.795048 32.816762 60.416 59.830857 103.521524 80.896l-15.920762 20.650667c-45.83619-23.015619-82.236952-52.394667-109.080381-88.405333-26.038857 10.800762-59.782095 10.776381-101.254095-0.073143l-1.024-26.648381c35.913143 10.873905 65.170286 12.166095 86.942476 3.900952a277.016381 277.016381 0 0 1-31.451429-73.728l23.917715-4.924952c6.753524 24.30781 16.505905 46.32381 28.915809 66.681905 13.336381-11.800381 26.209524-29.013333 38.229334-51.68762l-75.410286-32.01219 40.448-95.280762 76.751238 32.572952 13.58019-31.963428-88.210285-37.449143 9.849904-23.235048z m114.102858 200.192l21.991619-51.833904-55.881143-23.722667-18.578286 43.76381c-1.145905 2.681905-2.633143 5.241905-3.779048 7.923809l56.222477 23.893333z m-80.822858-34.279619c1.145905-2.681905 2.633143-5.241905 3.779048-7.94819l18.578286-43.76381-53.881905-22.869333-21.991619 51.858286 53.51619 22.723047z m-131.900952-104.862476c-17.188571 10.581333-34.767238 20.187429-53.418667 28.574476l2.779429-29.013333c52.419048-26.209524 97.694476-62.634667 135.753143-109.226667l18.456381 20.138667c-19.553524 22.674286-40.569905 43.154286-62.902857 61.098667l-96.158477 226.57219-24.234666-10.288762 79.725714-187.855238z m379.001905 156.086857l-25.014857 58.928762 85.504 36.278857 25.014857-58.904381-85.504-36.303238zM970.361905 661.528381c-21.991619 41.520762-49.590857 71.92381-83.139048 91.038476l-11.53219-24.356571c34.279619-20.821333 61.537524-54.125714 81.773714-99.961905l68.608-161.596952 250.782476 106.447238-107.032381 252.147809c-9.99619 23.576381-26.770286 30.354286-50.346666 20.358095l-38.716953-16.432761 3.754667-26.624c13.165714 6.38781 25.35619 12.336762 36.815238 17.212952 12.092952 5.12 21.504 0.78019 27.501714-13.360762l24.868572-58.563048-91.574858-38.887619-41.862095 98.645334-24.917333-10.581334 41.862095-98.620952-86.844952-36.864z m212.772571 64.073143l24.990476-58.904381-91.550476-38.863238-25.014857 58.904381 91.574857 38.863238z m34.572191-81.456762l24.576-57.904762-91.574857-38.863238-24.576 57.904762 91.574857 38.863238z m-91.916191-107.349333l-85.504-36.303239-24.576 57.904762 85.504 36.303238 24.600381-57.904761z" fill="#FF3158" p-id="5305"></path></svg>