<?xml version="1.0" standalone="no"?><!DOCTYPE svg PUBLIC "-//W3C//DTD SVG 1.1//EN" "http://www.w3.org/Graphics/SVG/1.1/DTD/svg11.dtd"><svg t="1590637354053" class="icon" viewBox="0 0 1024 1024" version="1.1" xmlns="http://www.w3.org/2000/svg" p-id="20160" xmlns:xlink="http://www.w3.org/1999/xlink" width="128" height="128"><defs><style type="text/css"></style></defs><path d="M746 717.3l19.7 41.9c2.5 2.5 4.9 4.9 7.4 4.9l44.4 4.9c7.4 0 12.3 12.3 4.9 17.3l-34.5 29.6c-2.5 2.5-2.5 4.9-2.5 9.9l9.9 44.4c2.5 7.4-7.4 14.8-14.8 9.9L741 857.9c-2.5-2.5-7.4-2.5-9.9 0l-39.5 22.2c-7.4 4.9-14.8-2.5-14.8-9.9l9.9-44.4c0-2.5 0-7.4-2.5-9.9l-34.5-29.6c-7.4-4.9-2.5-14.8 4.9-17.3l44.4-4.9c2.5 0 7.4-2.5 7.4-4.9l19.7-41.9c5.1-7.4 15-7.4 19.9 0z m3.3-432.5H242.6c-16.6 0-30-13.4-30-30s13.4-30 30-30h506.7c16.6 0 30 13.4 30 30s-13.5 30-30 30z m0 170.6H242.6c-16.6 0-30-13.4-30-30s13.4-30 30-30h506.7c16.6 0 30 13.4 30 30s-13.5 30-30 30zM406.4 626.1H242.6c-16.6 0-30-13.4-30-30s13.4-30 30-30h163.8c16.6 0 30 13.4 30 30 0 16.5-13.4 30-30 30z m0 170.6H242.6c-16.6 0-30-13.4-30-30s13.4-30 30-30h163.8c16.6 0 30 13.4 30 30s-13.4 30-30 30zM483 992a30 30 0 1 0 60 0 30 30 0 1 0-60 0z m419-480.2a30 30 0 1 0 60 0 30 30 0 1 0-60 0z" p-id="20161" fill="#ffffff"></path><path d="M736.1 571.7c-124.3 0-225 100.7-225 225s100.7 225 225 225 225-100.7 225-225-100.7-225-225-225z m0 385c-88.4 0-160-71.6-160-160s71.6-160 160-160 160 71.6 160 160-71.6 160-160 160z" p-id="20162" fill="#ffffff"></path><path d="M513 962H172c-27.6 0-50-22.4-50-50V112c0-27.6 22.4-50 50-50h680c27.6 0 50 22.4 50 50v400.1h60V112C962 51.3 912.7 2 852 2H172C111.3 2 62 51.3 62 112v800c0 60.7 49.3 110 110 110h341v-60z" p-id="20163" fill="#ffffff"></path></svg>