<?xml version="1.0" standalone="no"?><!DOCTYPE svg PUBLIC "-//W3C//DTD SVG 1.1//EN" "http://www.w3.org/Graphics/SVG/1.1/DTD/svg11.dtd"><svg t="1587441205800" class="icon" viewBox="0 0 1318 1024" version="1.1" xmlns="http://www.w3.org/2000/svg" p-id="4476" xmlns:xlink="http://www.w3.org/1999/xlink" width="257.421875" height="200"><defs><style type="text/css"></style></defs><path d="M490.863115 683.563574l13.638808-13.71234c-8.554213-5.405957-15.626894-10.245447-23.105361-14.382298-2.020766-1.119319-6.171234-1.149277-7.595575 0.201532-1.437957 1.329021-2.097021 5.99966-0.915064 7.478468 1.541447 1.892766 5.13634 2.500085 7.946894 2.946724 5.604766 0.838809 11.296681 1.244596 16.754383 3.126468-11.819574 9.491064-15.754894 9.180596-25.700766 1.405276-7.470298-5.798128-14.532085-10.820085-25.139745-12.584851-10.585872-1.778383-19.935319-10.978043-29.913872-16.680851a30268.317957 30268.317957 0 0 0-93.352851-53.084596c-32.413957-18.481021-64.827915-37.021957-97.892766-55.862468l11.648-15.139404-30.030979-17.127489c-1.372596 10.670298-1.870979 16.882383 10.245447 13.627915 4.191319-1.116596 9.61634 2.489191 17.467915 4.725106-11.882213 6.094979-19.031149 8.317277-28.064681 1.010383-7.998638-6.457191-18.712511-9.458383-27.871319-14.57566-20.139574-11.223149-40.096681-22.713191-60.075574-34.181446a38974.668255 38974.668255 0 0 1-101.637447-58.732937c-4.809532-2.723404-9.041702-6.361872-12.478639-10.702978-5.307915-7.105362-8.181106-14.766298 2.181447-17.032171 2.500085-23.383149 19.415149-38.12766 26.180085-58.041191l10.74383 3.415149 1.350809-2.053447-9.861447-8.733957 11.138723-3.107405c1.541447-6.073191 1.969021-12.083745 4.48817-16.988595 8.619574-16.64817 17.862809-32.969532 27.086979-49.288171a58358.732255 58358.732255 0 0 1 81.424341-143.659574c2.862298-4.989277 4.564426-12.998809 10.64851-9.030809 0.885106-4.458213 0.893277-9.883234 3.06383-14.213446 6.405447-12.862638 13.597957-25.319489 20.692426-37.765447 3.202723-5.563915 4.820426-12.778213 13.913872-12.80817 1.713021 0 4.150468-5.819915 4.893957-9.245958 0.629106-2.946723-2.200511-7.467574-0.838808-9.297702 3.499574-4.531745 7.965957-9.286809 13.07234-11.223149 3.298043-1.244596 8.565106 2.170553 12.661107 4.096 1.93634 0.915064 2.903149 3.913532 4.850383 4.817702 19.510468 9.245957 39.127149 18.257702 60.06468 27.936681l-7.756255 7.968681c1.255489 0.915064 2.06434 1.786553 2.393872 1.639489 14.627404-6.149447 25.989447 2.67983 35.733788 10.253617 15.150298 11.756936 33.116596 17.713021 48.947744 27.786894 2.254979 1.437957 4.403745 3.129191 7.072681 4.981106-2.244085 5.659234-14.807149 8.232851-5.871659 15.945532 3.235404-4.297532 6.171234-11.754213 9.766127-12.094638 4.787745-0.438468 10.171915 4.520851 15.180256 7.350468 24.565106 13.892085 49.171064 27.721532 73.553702 41.850553 47.512511 27.51183 94.83166 55.339574 142.425872 82.67983 10.117447 5.809021 21.117277 10.065702 33.16017 15.724936-5.479489 5.691915-16.501106 7.647319-8.565106 15.817532 3.224511-3.850894 5.523064-8.45617 9.213277-10.392511 2.489191-1.329021 7.467574 0.168851 10.531404 1.892766 39.03183 22.438128 77.873021 45.309277 116.883064 67.820937 38.350979 22.094979 77.012426 43.637106 115.180936 66.061617 9.319489 5.446809 16.819745 14.033702 26.084766 19.627574 6.745872 4.085106 16.427574 3.894468 22.361872 8.627745 15.882894 12.661106 35.521362 17.895489 52.202213 28.947064 17.595915 11.691574 36.608 21.193532 54.925617 31.798468 7.617362 4.425532 15.468936 9.063489 14.001021 19.872681-0.64817 4.787745-1.998979 9.499234-3.510468 16.457531-29.851234-19.957106-61.287489-31.308255-85.405957-53.713702l1.830127-2.244085c-2.859574 0.457532-6.64783 2.32034-8.45617 1.138383-13.233021-8.605957-25.798809-18.254979-39.15983-26.64851-5.139064-3.213617-12.372426-2.957617-17.68034-5.977873-69.980596-39.979574-139.991149-80.054468-209.555064-120.916425-6.13583-3.605787-12.573957-12.266213-12.859915-18.818724-0.307745-7.658213-3.480511-9.074383-8.488851-11.669787a80.934128 80.934128 0 0 1-13.851234-9.341277c-6.075915-4.989277-9.000851-2.712511-11.212255 3.744681 5.670128 6.936511 20.10417 5.043745 19.679319 21.190809-5.574809-3.2-9.202383-5.23166-12.819064-7.306894-74.722043-43.084255-149.553021-86.043234-224.032681-129.522383-6.361872-3.733787-13.892085-10.809191-14.850723-17.244596-2.500085-16.381277-17.988085-15.967319-26.626724-23.998638-0.819745-0.77617-4.850383 1.90366-7.778042 3.137362 5.99966 8.426213 19.246298 6.222979 19.948936 20.139574L231.864647 27.106043c-3.052936 4.627064-5.362383 7.756255-7.28783 11.095148-22.233872 38.808511-44.233532 77.734128-66.766979 116.373788-3.349787 5.732766-9.085277 10.084766-15.084936 16.563744 2.15966 9.041702-1.489702 18.434723-17.563234 39.189788-3.660255-1.233702-7.584681-2.628085-11.52-3.968l-1.830128 1.478808c2.742468 3.829106 5.457702 7.660936 8.456171 11.841362-18.41566 32.285957-37.073702 64.830638-55.562894 97.42434-12.181787 21.479489-24.341787 42.958979-35.883574 64.830639-1.053957 1.988085 1.669447 8.096681 4.224 9.542808 55.276936 32.043574 110.946043 63.47983 166.212085 95.458043a35182.910638 35182.910638 0 0 1 213.201702 124.255319c4.044255 2.361191 6.650553 7.244255 10.713872 9.393021 7.020936 3.671149 15.147574 5.297021 21.977872 9.213277a157186.527319 157186.527319 0 0 1 327.276937 187.904c42.190979 24.221957 84.499064 48.245106 126.297872 72.093957-2.361191 10.22366 6.171234 19.95983 13.404596 16.098043 7.244255-3.861787 11.138723-0.351319 16 2.412936a81157.463149 81157.463149 0 0 1 145.574127 83.276255l10.732937 6.12766 52.033361-91.179575c17.043064-29.829447 33.658553-59.852255 51.232681-89.393021 17.565957-29.543489 36.883064-58.065702 53.776341-87.979574 16.555574-29.287489 31.000511-59.841362 45.181276-87.424-2.987574-8.287319-5.253447-15.534298-8.189276-22.449022-2.660766-6.296511-2.609021-15.447149-13.715064-14.041872-1.489702 0.190638-3.434213-3.170043-5.179915-4.904851l-2.339404 2.107915c4.403745 4.776851 8.818383 9.521021 13.627914 14.700936-6.372766 5.629277-11.555404 5.468596-17.533276-1.713021-2.500085-2.998468-8.45617-2.851404-12.233532-5.147234-20.915745-12.756426-41.605447-25.937702-62.532085-38.650554-3.883574-2.372085-8.916426-2.903149-12.691064-5.370553-14.276085-9.319489-28.298894-19.096511-42.574979-28.819064-1.021277 0.817021-2.042553 1.68034-3.052936 2.573617-1.010383-1.489702-2.873191-3.001191-2.840511-4.469106 0.223319-7.244255 0.915064-14.466723 1.64766-24.137532 21.757277 12.456851 42.776511 24.096681 63.468936 36.308426 24.935489 14.670979 49.394383 29.924766 74.234553 44.68017 5.710979 3.393362 12.467745 4.978383 18.126979 8.521532 7.244255 4.575319 19.170043 6.925617 12.873532 20.425532-0.138894 0.266894 2.28766 1.723915 4.499064 3.35251l3.488681-12.565787 16.882383 14.341447-8.712171 6.318298 1.819235 5.51217c2.712511-2.342128 5.435915-4.648851 9.158808-7.829787 0.797957 4.795915 1.255489 7.617362 1.745702 10.329872-1.713021 0.541957-2.628085 1.157447-3.074723 0.915064-1.753872-0.936851-3.360681-2.129702-4.978383-3.235404a34.445617 34.445617 0 0 0-1.329021 5.937021c-0.182468 4.096 1.500596 9.052596-0.22332 12.189957-14.956936 27.266723-30.627404 54.214809-46.129021 81.320851l-12.16817-3.140085c9.019915 15.852936-1.830128 26.182809-7.660936 36.842213-32.680851 59.754213-66.075234 119.083574-99.477788 178.434723-11.724255 20.820426-24.064 41.308596-36.25668 61.873022-8.298213 13.979234-11.372936 14.905191-25.700766 7.350468-36.937532-19.434213-74.267234-38.157617-110.57566-58.754724-64.381277-36.542638-128.106213-74.245447-192.168851-111.39268-33.661277-19.510468-67.532255-38.650553-101.117277-58.278128-24.788426-14.510298-49.108426-29.93566-73.937702-44.339745-23.573787-13.71234-47.553362-26.765617-71.339574-40.170213-12.968851-7.317787-25.850553-14.744511-39.756255-22.68051l0.117106-0.117107z m60.416 20.681532c13.573447 9.96766 25.542809 18.80783 37.721872 27.424681 2.053447 1.446128 4.981106 1.756596 7.481192 2.584511l1.010383-3.393362-43.914894-34.20051-2.254979 7.562893-0.043574 0.021787z m-265.510128-152.576c13.646979 10.278128 25.755234 19.586723 38.138553 28.544 1.55234 1.127489 4.414638 0.424851 9.360341 0.754383-12.745532-10.25634-22.541617-18.28766-32.541958-26.084766-3.744681-2.914043-7.925106-5.277957-13.020595-8.616851-0.106213 0.340426-1.171064 3.287149-1.936341 5.403234z" fill="#4688FF" p-id="4477"></path><path d="M223.438434 263.968681l8.126638-34.903149c48.106213-17.320851 91.860426-44.650213 131.308937-82.001702l19.159148 27.427404a415.24017 415.24017 0 0 1-63.787574 47.893787l-113.233702 196.115064L177.023455 402.298553l88.529702-153.341276a655.196596 655.196596 0 0 1-42.114723 15.011404z m223.722213-28.68017l15.809362-27.427405 27.702468 16.076256-15.831149 27.424681 78.436766 45.287489-15.373617 26.457872-78.414979-45.276595-13.254809 23.031829 67.31983 38.882043-49.998979 86.585191-68.501787-39.562893c-16.138894 22.574298-31.447149 38.988255-46.052766 48.830638 19.733787 30.423149 46.96783 56.646809 81.522383 78.946043l-22.021447 22.647829c-38.138553-25.521021-67.330723-55.170723-87.543829-89.403915-24.32817 5.765447-54.361872 1.255489-90.286298-13.254808l2.489191-31.989106c28.745532 13.489021 53.030128 18.573617 72.371745 15.36a280.796596 280.796596 0 0 1-19.074723-66.606298l29.701446-2.284936a218.348936 218.348936 0 0 0 17.064851 57.286808c11.073362-8.382638 22.435404-20.074213 33.819234-35.692936l-63.575149-36.670638 49.990809-86.604256 65.010383 37.553022 13.298383-23.03183-73.191489-42.256341 15.330042-26.531404 73.243234 42.234553 0.010894-0.010893z m-42.765617 74.041191l-39.053617-22.541617-21.553022 37.307915 39.075405 22.552511 21.531234-37.307915v-0.010894z m69.095489 39.906043l-41.393021-23.906043-21.553021 37.318809 41.414808 23.906042 21.531234-37.318808z m24.796596 235.127829l-10.338043-31.278297c31.956426-14.96783 59.351149-41.531915 82.148766-79.692256l82.500085-142.796255 223.572426 129.083915-126.733617 219.533617c-12.617532 21.849872-30.382298 26.381617-52.542638 13.595234l-33.51966-19.371575 8.371745-31.308255a459.691574 459.691574 0 0 0 30.935149 19.785532c9.319489 5.38417 17.650383 2.41566 24.192-8.957277l25.09617-43.42468-72.32-41.744341-47.967319 83.082894-27.988426-16.201532 47.978213-83.085617-68.575319-39.541107c-24.660426 34.734298-52.926638 58.839149-84.809532 72.328171v-0.008171z m166.789447-210.829617l-25.256851 43.732426 67.052936 38.713191 25.256851-43.713361-67.052936-38.713192v-0.019064z m-65.650383 113.702128l67.052936 38.64783 25.755234-44.595745-67.06383-38.64783-25.74434 44.595745z m232.989957-17.075745l-72.32-41.74434-25.213276 43.743319 72.309106 41.755234 25.22417-43.765106v0.010893zM792.512817 539.234043l-72.309106-41.744341-25.744341 44.595745 72.306383 41.755234L792.512817 539.234043z" fill="#4286FF" p-id="4478"></path><path d="M1011.888477 730.329872l82.546383 49.598639 46.161702-76.832681-82.54366-49.595915-46.161702 76.827234z m-113.021277-67.910808l82.227745 49.405276 46.161702-76.827234-82.225021-49.408-46.164426 76.827234z m176.544681-37.811745l113.342638 68.101447-91.185021 151.756255-30.796255-18.502808 10.302638-17.14383-82.546383-49.598638-60.661107 100.956595-30.796255-18.502808 60.66383-100.956596-82.227745-49.408-11.25583 18.731575-29.524425-17.740256 92.135489-153.344 111.754894 67.148256 33.192851-55.241532 30.793532 18.502808-33.192851 55.241532z" fill="#4286FF" p-id="4479"></path></svg>