<?xml version="1.0" standalone="no"?><!DOCTYPE svg PUBLIC "-//W3C//DTD SVG 1.1//EN" "http://www.w3.org/Graphics/SVG/1.1/DTD/svg11.dtd"><svg t="1590637330556" class="icon" viewBox="0 0 1024 1024" version="1.1" xmlns="http://www.w3.org/2000/svg" p-id="19325" xmlns:xlink="http://www.w3.org/1999/xlink" width="128" height="128"><defs><style type="text/css"></style></defs><path d="M400.892995 618.97643l198.015889-39.602973L955.391924 222.917022 796.979008 64.476477 440.495968 420.932911 400.892995 618.97643zM796.979008 143.683447l79.205946 79.233576L559.305911 539.76946l-118.809943 39.603996 39.602973-118.809943L796.979008 143.683447zM796.979008 847.842954c0 30.905894-25.106818 56.012711-56.012711 56.012711L180.83202 903.855666c-30.960129 0-56.013735-25.106818-56.013735-56.012711L124.818285 287.709701c0-30.933523 25.052582-56.012711 56.013735-56.012711l336.080362 0 0-56.013735L124.819309 175.683255c-30.960129 0-56.012711 25.080212-56.012711 56.013735l0 672.1597c0 30.905894 25.052582 56.012711 56.012711 56.012711l672.1597 0c30.905894 0 56.013735-25.106818 56.013735-56.012711L852.992743 511.762593l-56.013735 0L796.979008 847.842954zM264.852622 455.749882l112.026446 0c15.480576 0 28.006867-12.526291 28.006867-28.006867 0-15.480576-12.526291-28.006867-28.006867-28.006867L264.852622 399.736147c-15.480576 0-28.006867 12.526291-28.006867 28.006867C236.845755 443.222567 249.372046 455.749882 264.852622 455.749882zM264.852622 679.802774l112.026446 0c15.480576 0 28.006867-12.526291 28.006867-28.006867s-12.526291-28.005844-28.006867-28.005844L264.852622 623.790062c-15.480576 0-28.006867 12.525268-28.006867 28.005844S249.372046 679.802774 264.852622 679.802774z" p-id="19326" fill="#ffffff"></path></svg>