<svg t="1586852003747" class="icon" viewBox="0 0 1024 1024" version="1.1" xmlns="http://www.w3.org/2000/svg" p-id="629" width="128" height="128"><path d="M777.12143803 600.37381268c-26.51214381 0-44.18690634 17.67476253-44.18690633 44.18690634s17.67476253 44.18690634 44.18690633 44.18690632 44.18690634-17.67476253 44.18690632-44.18690632-17.67476253-44.18690634-44.18690632-44.18690634" p-id="630"></path><path d="M998.05596972 246.87856197H70.13093663V70.13093663h795.36431407v-88.37381268H25.94403028c-26.51214381 0-44.18690634 17.67476253-44.18690633 44.18690633v972.11193944c0 26.51214381 17.67476253 44.18690634 44.18690633 44.18690633h972.11193944c26.51214381 0 44.18690634-17.67476253 44.18690633-44.18690633V291.0654683c0-26.51214381-17.67476253-44.18690634-44.18690633-44.18690633z m-44.18690635 486.05596973H600.37381268V556.18690634h353.49525069v176.74762536z m0-265.12143804H556.18690634c-26.51214381 0-44.18690634 17.67476253-44.18690634 44.18690634v265.12143803c0 26.51214381 17.67476253 44.18690634 44.18690634 44.18690632h397.68215703v132.56071902H70.13093663V335.25237466h883.73812674v132.560719z" p-id="631"></path></svg>
