<svg t="1601188079790" class="icon" viewBox="0 0 1024 1024" version="1.1" xmlns="http://www.w3.org/2000/svg" p-id="3250" width="32" height="32"><path d="M521.6 8C374.4 8 254.4 128 254.4 275.2c0 94.4 48 176 121.6 224C188.8 561.6 52.8 737.6 52.8 945.6c0 19.2 14.4 33.6 33.6 33.6 19.2 0 33.6-14.4 33.6-33.6C120 723.2 299.2 544 521.6 544c147.2 0 267.2-120 267.2-267.2C788.8 128 668.8 8 521.6 8z m0 468.8c-110.4 0-200-89.6-200-200S411.2 76.8 521.6 76.8s200 89.6 200 200-89.6 200-200 200zM692.8 1011.2c-11.2 0-22.4-4.8-28.8-12.8L528 835.2c-12.8-16-11.2-40 4.8-52.8 16-12.8 40-11.2 52.8 4.8l104 124.8 216-321.6c11.2-17.6 35.2-22.4 52.8-9.6 17.6 11.2 22.4 35.2 9.6 52.8L723.2 995.2c-6.4 9.6-17.6 16-28.8 16h-1.6z" p-id="3251" fill="#515151"></path></svg>