<?xml version="1.0" standalone="no"?><!DOCTYPE svg PUBLIC "-//W3C//DTD SVG 1.1//EN" "http://www.w3.org/Graphics/SVG/1.1/DTD/svg11.dtd"><svg t="1591495918808" class="icon" viewBox="0 0 1024 1024" version="1.1" xmlns="http://www.w3.org/2000/svg" p-id="2757" xmlns:xlink="http://www.w3.org/1999/xlink" width="200" height="200"><defs><style type="text/css"></style></defs><path d="M231.7 519.9c0-17.2 13.9-31.1 31.1-31.1 17.2 0 31.1 13.9 31.1 31.1v248.5c0 17.2 13.9 31.1 31.1 31.1h372.8c17.2 0 31.1-13.9 31.1-31.1V519.9c0-17.2 13.9-31.1 31.1-31.1 17.2 0 31.1 13.9 31.1 31.1v248.5c0 51.5-41.7 93.2-93.2 93.2h-373c-51.5 0-93.2-41.7-93.2-93.2V519.9z m310.7-235.7v328.9c0 17.2-13.9 31.1-31.1 31.1-17.2 0-31.1-13.9-31.1-31.1V284.2L409 355.4c-12.1 12.1-31.8 12.1-43.9 0-12.1-12.1-12.1-31.8 0-43.9l124.3-124.3c12.1-12.1 31.8-12.1 43.9 0l124.3 124.3c12.1 12.1 12.1 31.8 0 43.9-12.1 12.1-31.8 12.1-43.9 0l-71.3-71.2z" p-id="2758" fill="#ffffff"></path></svg>