<svg t="1586851432402" class="icon" viewBox="0 0 1024 1024" version="1.1" xmlns="http://www.w3.org/2000/svg" p-id="614" width="128" height="128"><path d="M435.67624485-8.75997414l163.68367043 0.24494913a92.21615236 92.21615236 0 0 1 92.0619785 92.09367778l0.0619577 26.68072648A434.36833603 434.36833603 0 0 1 780.9637777 160.51862314l21.91574495-12.60191354a92.21615236 92.21615236 0 0 1 125.78427269 33.68915402l82.04067632 141.64401003a92.21615236 92.21615236 0 0 1-28.80169795 123.04660567l-5.00993067 3.07483233-22.009402 12.69412973c3.78086227 34.91966332 3.31978149 70.39262354-1.62819143 105.64945217l15.55283045 9.00548364a92.21615236 92.21615236 0 0 1 36.33316404 121.20372349l-2.55035297 4.76498149-76.84775422 133.09816629a92.21615236 92.21615236 0 0 1-121.20228262 36.33316401l-4.79523993-2.58205228-21.24141434-12.29500668a430.15809232 430.15809232 0 0 1-85.9137547 47.95239924v36.57811318a92.21615236 92.21615236 0 0 1-86.43823407 92.15563551l-5.87013444 0.1844323-163.68367042-0.24639005a92.21615236 92.21615236 0 0 1-92.06341935-92.06197846l-0.09221616-44.11102013a436.02822676 436.02822676 0 0 1-72.14328956-42.78829468l-39.22212319 22.5626989a92.21615236 92.21615236 0 0 1-125.78283182-33.72085334l-82.04211716-141.61231073a92.21615236 92.21615236 0 0 1 28.80313883-123.07830497l5.00993065-3.07339145 39.89789467-22.96182193c-3.07339145-29.20226187-3.22756535-58.74168908-0.27664844-88.22059937l-44.29401158-25.60439107a92.21615236 92.21615236 0 0 1-36.36342244-121.20372349l2.58205225-4.7649815 76.84631336-133.09816628a92.21615236 92.21615236 0 0 1 121.20228261-36.33316404l4.7649815 2.58205228 38.60830941 22.28605045a429.35840537 429.35840537 0 0 1 81.30294708-49.95089614v-35.10409563a92.21615236 92.21615236 0 0 1 86.43823406-92.18445307l5.87013444-0.18443229z m-0.12391545 92.21615235l0.09221615 93.75212763-52.99258829 24.93006044a336.55581593 336.55581593 0 0 0-63.84527673 39.22212317l-48.99703533 38.23944482-90.15569771-52.07186764-2.3054038-1.29102612-76.84775421 133.09816627 95.90479844 55.3613907-5.96379148 59.29498597a338.91885482 338.91885482 0 0 0 0.21613161 69.28458884l6.33121522 59.69554987-91.90780461 52.93063059L187.09175654 797.51610435l91.26373241-52.4709907 48.41347997 35.44126093a342.92161219 342.92161219 0 0 0 56.8656667 33.75111177l52.93207147 24.86810271 0.18443229 102.54436142 163.65341203 0.24494915-0.09221616-98.21020226 56.86710756-23.66785185a337.94193995 337.94193995 0 0 0 67.47052423-37.62419017l48.38322157-34.76548943 72.85076035 42.05056546 76.78435563-133.12986557-69.34510573-40.08232696 8.6063606-61.50817362a337.77191643 337.77191643 0 0 0 1.29102616-82.99453713l-6.45513067-59.7258083 74.14178649-42.78829469-82.04211717-141.6137516-73.77292188 42.51164619-48.44373843-35.31878635a342.98212904 342.98212904 0 0 0-70.51509813-39.62124622l-56.74319212-23.54681813-0.1844323-88.15864167-163.65341201-0.24494912zM619.09561277 348.17705233a184.67725387 184.67725387 0 0 1 67.56274037 252.0584437 184.18735555 184.18735555 0 0 1-251.81061276 67.50222349 184.67725387 184.67725387 0 0 1-67.53392285-252.05844366A184.18735555 184.18735555 0 0 1 619.09561277 348.17849318zM447.17012373 461.72683519a92.46110152 92.46110152 0 0 0 33.81306948 126.18195482 91.9712032 91.9712032 0 0 0 125.78283181-33.72085336 92.46110152 92.46110152 0 0 0-29.20226185-123.32325412l-4.61080764-2.85870071-4.76354062-2.55035298a91.9712032 91.9712032 0 0 0-121.01929118 36.27120631z" p-id="615"></path></svg>
