<?xml version="1.0" standalone="no"?><!DOCTYPE svg PUBLIC "-//W3C//DTD SVG 1.1//EN" "http://www.w3.org/Graphics/SVG/1.1/DTD/svg11.dtd"><svg t="1590636854482" class="icon" viewBox="0 0 1024 1024" version="1.1" xmlns="http://www.w3.org/2000/svg" p-id="4713" width="128" height="128" xmlns:xlink="http://www.w3.org/1999/xlink"><defs><style type="text/css"></style></defs><path d="M213.745468 949.918157h596.563586V617.643407c-0.023267-13.192338 7.073141-25.384199 18.613529-31.992002a37.599327 37.599327 0 0 1 37.296857 0c11.540388 6.607803 18.636795 18.799664 18.636796 31.992002v369.17607c0 20.405081-16.682375 36.924587-37.273591 36.924587H176.44861c-20.591216 0-37.273591-16.519506-37.27359-36.924587V617.643407c0-20.381814 16.682375-36.924587 37.27359-36.924587 20.591216 0 37.296858 16.519506 37.296858 36.924587v332.251483zM512.027261 89.182068L63.836763 532.951853a37.552794 37.552794 0 0 1-36.017177 9.585967 37.133989 37.133989 0 0 1-26.407944-26.105474 36.691918 36.691918 0 0 1 9.632501-35.69144L485.619318 10.84238a37.459726 37.459726 0 0 1 52.79262 0L1012.963845 480.740906c9.423099 9.353298 13.122538 22.964441 9.655768 35.714707-3.443503 12.750267-13.494808 22.708505-26.384677 26.128741a37.576061 37.576061 0 0 1-36.063711-9.5627L512.003994 89.251869v-0.069801z" fill="#ffffff" p-id="4714"></path></svg>