<?xml version="1.0" standalone="no"?><!DOCTYPE svg PUBLIC "-//W3C//DTD SVG 1.1//EN" "http://www.w3.org/Graphics/SVG/1.1/DTD/svg11.dtd"><svg t="1591060557467" class="icon" viewBox="0 0 1309 1024" version="1.1" xmlns="http://www.w3.org/2000/svg" p-id="3546" width="163.625" height="128" xmlns:xlink="http://www.w3.org/1999/xlink"><defs><style type="text/css"></style></defs><path d="M556.123849 68.547581l-0.402176-68.547581-173.075591 101.309292 174.269062 99.227899-0.403482-67.731476c206.45493 4.29467 373.200159 173.289736 373.200159 380.754025 0 101.435952-39.397623 196.914991-110.909297 268.804031-12.485751 12.547122-12.485751 32.935379 0.122742 45.421129 6.274214 6.20762 14.430039 9.344074 22.647235 9.344074 8.217196 0 16.500986-3.136454 22.773895-9.470733 83.559992-83.99873 129.602667-195.538712 129.602666-314.098501 0-243.041235-195.747635-440.910742-437.825213-445.012159z m3.116867 825.194257c-3.596084 0.096627-7.094236 0.974103-10.69032 0.974103-210.152864 0-381.157507-171.004643-381.157507-381.156201 0-101.437257 39.458994-196.977668 111.035956-268.931997 12.481833-12.548428 12.481833-32.935379-0.126659-45.417212-12.548428-12.419157-32.874007-12.547122-45.415906 0.122742C149.199628 283.397291 103.155648 394.994727 103.155648 513.55974c0 245.596622 199.798126 445.393443 445.394748 445.393442 3.436781 0 6.864421-0.39173 10.302507-0.46877l-0.39173 65.512976 174.267757-99.233121-173.070368-101.304069-0.417846 70.28164z m0 0" p-id="3547"></path><path d="M738.941772 351.89917h-387.995812c-17.755829 0-32.119274 14.363445-32.119274 32.119274 0 17.7493 14.363445 32.117968 32.119274 32.117968h387.995812c17.755829 0 32.119274-14.368668 32.119274-32.117968 0-17.755829-14.363445-32.119274-32.119274-32.119274z m0 135.499514h-387.995812c-17.755829 0-32.119274 14.367362-32.119274 32.117968 0 17.755829 14.363445 32.119274 32.119274 32.119273h387.995812c17.755829 0 32.119274-14.368668 32.119274-32.119273s-14.363445-32.117968-32.119274-32.117968z m0 135.436836h-387.995812c-17.755829 0-32.119274 14.368668-32.119274 32.119274s14.363445 32.117968 32.119274 32.117968h387.995812c17.755829 0 32.119274-14.367362 32.119274-32.117968 0-17.750606-14.363445-32.119274-32.119274-32.119274z m0 0" p-id="3548"></path></svg>