<?xml version="1.0" standalone="no"?><!DOCTYPE svg PUBLIC "-//W3C//DTD SVG 1.1//EN" "http://www.w3.org/Graphics/SVG/1.1/DTD/svg11.dtd"><svg t="1587441181578" class="icon" viewBox="0 0 1319 1024" version="1.1" xmlns="http://www.w3.org/2000/svg" p-id="3735" xmlns:xlink="http://www.w3.org/1999/xlink" width="257.6171875" height="200"><defs><style type="text/css"></style></defs><path d="M489.608533 679.492267l13.573689-13.653334c-8.510578-5.381689-15.553422-10.205867-23.005866-14.324622-2.013867-1.115022-6.144-1.137778-7.566223 0.2048-1.422222 1.319822-2.082133 5.973333-0.910222 7.441067 1.536 1.888711 5.12 2.491733 7.918933 2.935466 5.575111 0.841956 11.241244 1.240178 16.679823 3.117512-11.764622 9.443556-15.689956 9.136356-25.588623 1.399466-7.441067-5.779911-14.472533-10.774756-25.031111-12.538311-10.5472-1.763556-19.854222-10.922667-29.787022-16.600178a30666.183111 30666.183111 0 0 0-92.956444-52.861155c-32.278756-18.397867-64.557511-36.864-97.473423-55.625956l11.593956-15.075555-29.9008-17.055289c-1.365333 10.626844-1.865956 16.816356 10.205867 13.573689 4.164267-1.115022 9.568711 2.480356 17.385244 4.699022-11.832889 6.075733-18.944 8.283022-27.943822 1.012622-7.964444-6.428444-18.625422-9.4208-27.7504-14.518044-20.047644-11.172978-39.924622-22.607644-59.812978-34.030934a37541.046044 37541.046044 0 0 1-101.205333-58.481777 42.678044 42.678044 0 0 1-12.424534-10.660978c-5.290667-7.076978-8.146489-14.700089 2.161778-16.952889 2.491733-23.290311 19.342222-37.967644 26.077867-57.799111l10.695111 3.401955 1.342578-2.048-9.819022-8.692622 11.093333-3.094755c1.536-6.052978 1.956978-12.037689 4.471467-16.918756 8.578844-16.577422 17.783467-32.824889 26.965333-49.072356A56144.668444 56144.668444 0 0 1 159.675733 104.220444c2.855822-4.960711 4.551111-12.936533 10.604089-8.988444 0.876089-4.437333 0.887467-9.841778 3.049245-14.153956 6.382933-12.811378 13.539556-25.213156 20.605155-37.603555 3.185778-5.540978 4.801422-12.720356 13.858134-12.754489 1.706667 0 4.130133-5.791289 4.869688-9.204622 0.625778-2.935467-2.195911-7.441067-0.830577-9.261511 3.4816-4.5056 7.930311-9.250133 13.016177-11.172978 3.2768-1.240178 8.521956 2.161778 12.606578 4.073244 1.922844 0.910222 2.889956 3.902578 4.824178 4.801423 19.433244 9.204622 38.968889 18.181689 59.812978 27.818666l-7.725511 7.930311c1.251556 0.910222 2.059378 1.786311 2.389333 1.6384 14.563556-6.121244 25.873067 2.6624 35.578311 10.205867 15.086933 11.707733 32.9728 17.635556 48.731022 27.670756 2.2528 1.4336 4.391822 3.117511 7.054223 4.960711-2.241422 5.632-14.7456 8.192-5.848178 15.872 3.219911-4.278044 6.144-11.696356 9.716622-12.037689 4.767289-0.432356 10.126222 4.494222 15.121067 7.315911 24.462222 13.835378 48.958578 27.602489 73.238755 41.6768 47.3088 27.386311 94.424178 55.102578 141.812622 82.3296 10.080711 5.779911 21.026133 10.012444 33.018312 15.655822-5.449956 5.666133-16.429511 7.611733-8.521956 15.746845 3.208533-3.834311 5.495467-8.419556 9.170489-10.353778 2.480356-1.319822 7.441067 0.170667 10.490311 1.888711 38.866489 22.345956 77.539556 45.112889 116.383289 67.527111 38.183822 22.004622 76.686222 43.451733 114.688 65.786311 9.284267 5.4272 16.748089 13.971911 25.975467 19.547022 6.712889 4.061867 16.349867 3.868444 22.266311 8.590223 15.815111 12.606578 35.373511 17.8176 51.973689 28.819911 17.521778 11.639467 36.4544 21.105778 54.692977 31.664355 7.588978 4.4032 15.405511 9.022578 13.937778 19.785956-0.637156 4.767289-1.991111 9.454933-3.492978 16.384-29.718756-19.8656-61.019022-31.175111-85.037511-53.475556l1.820445-2.241422c-2.844444 0.455111-6.621867 2.309689-8.419556 1.137778-13.175467-8.567467-25.691022-18.181689-38.991644-26.532978-5.12-3.208533-12.322133-2.946844-17.601423-5.961956-69.688889-39.799467-139.400533-79.712711-208.668444-120.399644-6.109867-3.584-12.515556-12.208356-12.8-18.7392-0.3072-7.623111-3.470222-9.033956-8.453689-11.616711a80.167822 80.167822 0 0 1-13.789867-9.295645c-6.052978-4.972089-8.965689-2.707911-11.172977 3.720534 5.654756 6.906311 20.024889 5.028978 19.603911 21.105778-5.552356-3.185778-9.170489-5.211022-12.765867-7.281778-74.410667-42.894222-148.912356-85.674667-223.072711-128.967111-6.337422-3.720533-13.835378-10.763378-14.791111-17.169067-2.491733-16.315733-17.908622-15.894756-26.510222-23.893333-0.8192-0.773689-4.835556 1.888711-7.748267 3.117511 5.973333 8.3968 19.160178 6.200889 19.8656 20.059022l-182.499556-104.106667c-3.037867 4.608-5.336178 7.714133-7.259022 11.047823-22.129778 38.638933-44.043378 77.403022-66.480355 115.871288-3.333689 5.711644-9.045333 10.046578-15.018667 16.497778 2.1504 8.999822-1.479111 18.352356-17.487644 39.025778-3.640889-1.2288-7.554844-2.616889-11.4688-3.959467l-1.820445 1.479111c2.730667 3.811556 5.4272 7.623111 8.419556 11.787378-18.340978 32.1536-36.920889 64.557511-55.330134 97.006934-12.128711 21.390222-24.234667 42.780444-35.726222 64.557511-1.046756 1.979733 1.661156 8.055467 4.1984 9.500444 55.045689 31.903289 110.478222 63.203556 165.512533 95.049956A35612.296533 35612.296533 0 0 1 411.534222 607.425422c4.027733 2.3552 6.621867 7.213511 10.672356 9.352534 6.985956 3.663644 15.075556 5.279289 21.879466 9.181866 108.703289 62.236444 217.338311 124.598044 325.882312 187.096178 42.006756 24.120889 84.138667 48.036978 125.758577 71.793778-2.3552 10.171733 6.144 19.8656 13.346134 16.019911 7.213511-3.845689 11.093333-0.341333 15.928889 2.412089a71948.970667 71948.970667 0 0 1 144.952888 82.921244l10.695112 6.098489 51.803022-90.794667c16.975644-29.696 33.518933-59.5968 51.017955-89.008355 17.487644-29.422933 36.727467-57.821867 53.543823-87.608889 16.4864-29.161244 30.867911-59.585422 44.987733-87.051378-2.9696-8.248889-5.233778-15.4624-8.157867-22.345955-2.639644-6.269156-2.594133-15.382756-13.653333-13.983289-1.479111 0.193422-3.413333-3.163022-5.154133-4.881067l-2.332445 2.093511c4.391822 4.755911 8.783644 9.477689 13.573689 14.6432-6.3488 5.597867-11.502933 5.438578-17.464889-1.706666-2.480356-2.992356-8.419556-2.844444-12.174222-5.131378-20.832711-12.6976-41.426489-25.827556-62.270578-38.479645-3.868444-2.366578-8.874667-2.889956-12.629333-5.347555-14.222222-9.284267-28.182756-19.023644-42.3936-28.706134-1.024 0.8192-2.036622 1.683911-3.049245 2.571378-1.001244-1.490489-2.855822-2.992356-2.821689-4.448711 0.216178-7.213511 0.910222-14.404267 1.6384-24.041244 21.663289 12.401778 42.5984 23.995733 63.203556 36.158577 24.826311 14.609067 49.174756 29.7984 73.910044 44.487112 5.688889 3.3792 12.413156 4.960711 18.056534 8.487822 7.213511 4.551111 19.080533 6.894933 12.811378 20.332089-0.136533 0.273067 2.275556 1.718044 4.482844 3.345066l3.470222-12.515555 16.816356 14.279111-8.681245 6.291911 1.820445 5.484089c2.696533-2.321067 5.404444-4.619378 9.1136-7.793778 0.796444 4.778667 1.251556 7.588978 1.7408 10.285511-1.706667 0.546133-2.616889 1.160533-3.060622 0.910222-1.752178-0.932978-3.345067-2.116267-4.960712-3.219911-0.6144 1.934222-1.058133 3.913956-1.319822 5.916445-0.182044 4.073244 1.490489 9.0112-0.227555 12.140089-14.893511 27.147378-30.492444 53.976178-45.932089 80.964266l-12.117334-3.117511c8.988444 15.780978-1.820444 26.066489-7.623111 36.681956-32.540444 59.4944-65.797689 118.5792-99.054933 177.675378-11.6736 20.730311-23.9616 41.130667-36.101689 61.610666-8.260267 13.915022-11.320889 14.836622-25.588622 7.315911-36.784356-19.3536-73.955556-38.001778-110.102756-58.504533-64.113778-36.386133-127.567644-73.9328-191.351466-110.921956-33.518933-19.421867-67.242667-38.479644-100.681956-58.026666-24.689778-14.449778-48.901689-29.809778-73.6256-44.145778-23.472356-13.653333-47.354311-26.658133-71.031467-40.004267-12.913778-7.281778-25.747911-14.677333-39.594666-22.584889l0.125155-0.113777z m60.154311 20.593777c13.5168 9.921422 25.429333 18.727822 37.558045 27.306667 2.048 1.444978 4.960711 1.752178 7.452444 2.571378l1.001245-3.3792-43.7248-34.053689-2.241422 7.532089-0.045512 0.022755zM285.3888 548.158578c13.585067 10.24 25.645511 19.501511 37.967644 28.421689 1.547378 1.1264 4.4032 0.420978 9.329778 0.750933-12.6976-10.205867-22.448356-18.204444-32.403911-25.975467-3.731911-2.901333-7.896178-5.245156-12.970667-8.578844-0.1024 0.341333-1.160533 3.2768-1.922844 5.381689z" fill="#3FC07F" p-id="3736"></path><path d="M509.348978 450.218667l8.0896-34.759111c47.900444-17.237333 91.477333-44.452978 130.753422-81.646934l19.080533 27.306667a413.3888 413.3888 0 0 1-63.522133 47.695644l-112.7424 195.2768-27.875556-16.133689 88.155023-152.689777a650.0352 650.0352 0 0 1-41.938489 14.9504z m222.765511-28.558223l15.746844-27.306666 27.579734 16.008533-15.758223 27.306667 78.097067 45.090133-15.303111 26.350933-78.085689-45.090133-13.198222 22.9376 67.037867 38.718578-49.789156 86.209422-68.209778-39.389867c-16.065422 22.471111-31.311644 38.820978-45.852444 48.617245 19.649422 30.299022 46.762667 56.411022 81.169066 78.609067l-21.924977 22.550755c-37.979022-25.406578-67.037867-54.931911-87.165156-89.019733-24.234667 5.745778-54.135467 1.251556-89.9072-13.198222l2.480356-31.857778c28.626489 13.437156 52.804267 18.500267 72.066844 15.303111a279.893333 279.893333 0 0 1-19.000889-66.321067l29.582222-2.275555a217.099378 217.099378 0 0 0 16.987023 57.0368c11.025067-8.351289 22.345956-19.990756 33.678222-35.5328l-63.305956-36.522667 49.777778-86.232178 64.728178 37.387378 13.243733-22.926222-72.874666-42.075022 15.2576-26.4192 72.931555 42.052266z m-42.575645 73.728l-38.889244-22.448355-21.458489 37.148444 38.900622 22.459734 21.447111-37.148445z m68.801423 39.7312l-41.221689-23.802311-21.458489 37.159823 41.233067 23.802311 21.447111-37.159823z m24.689777 234.120534l-10.296888-31.140978c31.823644-14.904889 59.096178-41.346844 81.794844-79.348622l82.147556-142.188089 222.6176 128.534755L1033.102222 863.687111c-12.561067 21.765689-30.253511 26.271289-52.315022 13.539556l-33.3824-19.285334 8.339911-31.175111a461.141333 461.141333 0 0 0 30.799645 19.706311c9.284267 5.358933 17.578667 2.400711 24.098133-8.920177l24.9856-43.246934-72.009956-41.563022-47.763911 82.727822-27.875555-16.133689 47.775289-82.727822-68.278045-39.378489c-24.553244 34.588444-52.701867 58.595556-84.445867 72.021334z m166.070045-209.92l-25.144889 43.542755 66.7648 38.547911 25.144889-43.531377-66.7648-38.547911z m-65.365333 113.208889l66.7648 38.491022 25.645511-44.407467-66.776178-38.491022-25.634133 44.407467z m231.992888-16.9984l-72.009955-41.563023-25.099378 43.554134 71.998578 41.5744 25.110755-43.576889zM1075.996444 724.309333l-71.998577-41.563022-25.634134 44.407467 71.998578 41.5744 25.634133-44.418845zM402.204444 199.873422l26.2144 15.746845-21.162666 35.2256 91.477333 54.966044-15.098311 25.122133-91.477333-54.954666-25.440711 42.325333 105.961244 63.658667-15.098311 25.122133-84.3776-50.699378c-1.183289 42.780444 11.901156 89.656889 38.968889 140.4928l-32.403911 12.481423c-24.280178-59.175822-33.314133-114.039467-27.044978-165.284978l-1.092267-0.659911-73.511822 122.345244-26.2144-15.758222L325.404444 327.68l-1.080888-0.659911c-45.966222 32.585956-99.908267 49.982578-161.541689 52.349155l-0.420978-33.336888c54.419911 2.230044 101.6832-8.3968 141.471289-31.311645l-84.3776-50.699378 15.098311-25.122133 105.949867 63.658667 25.440711-42.325334-89.577245-53.816889 15.098311-25.122133 89.565867 53.816889 21.162667-35.2256z" fill="#3FC07F" p-id="3737"></path></svg>