<?xml version="1.0" standalone="no"?><!DOCTYPE svg PUBLIC "-//W3C//DTD SVG 1.1//EN" "http://www.w3.org/Graphics/SVG/1.1/DTD/svg11.dtd"><svg t="1591691367114" class="icon" viewBox="0 0 1024 1024" version="1.1" xmlns="http://www.w3.org/2000/svg" p-id="1157" xmlns:xlink="http://www.w3.org/1999/xlink" width="200" height="200"><defs><style type="text/css"></style></defs><path d="M512 90.125a421.875 421.875 0 1 0 0 843.75 421.875 421.875 0 0 0 0-843.75z m0 791.016c-203.555 0-369.14-165.586-369.14-369.141S308.444 142.86 512 142.86 881.14 308.444 881.14 512 715.556 881.14 512 881.14z" p-id="1158"></path><path d="M473.82 715.555c0 10.02 4.114 19.986 11.18 27.052a38.654 38.654 0 0 0 27 11.18c10.02 0 19.934-4.113 27-11.18a38.602 38.602 0 0 0 11.18-27 38.602 38.602 0 0 0-11.18-27 38.602 38.602 0 0 0-27-11.18 38.654 38.654 0 0 0-27 11.18 38.602 38.602 0 0 0-11.18 27zM512 266.31a127.934 127.934 0 0 0-128.25 127.353 25.682 25.682 0 1 0 51.31 0c0-42.61 33.803-75.937 76.94-75.937 42.398 0 76.94 34.804 76.94 77.677 0 17.139-21.463 38.602-42.188 59.432-28.371 28.371-60.38 60.486-60.38 102.516v43.453a25.682 25.682 0 1 0 51.257 0v-43.453c0-20.778 23.045-43.823 45.351-66.13 28.16-28.212 57.27-57.322 57.27-95.818A128.83 128.83 0 0 0 512 266.311z" p-id="1159"></path></svg>