<?xml version="1.0" standalone="no"?><!DOCTYPE svg PUBLIC "-//W3C//DTD SVG 1.1//EN" "http://www.w3.org/Graphics/SVG/1.1/DTD/svg11.dtd"><svg t="1590637294564" class="icon" viewBox="0 0 1024 1024" version="1.1" xmlns="http://www.w3.org/2000/svg" p-id="17872" xmlns:xlink="http://www.w3.org/1999/xlink" width="128" height="128"><defs><style type="text/css"></style></defs><path d="M505.374118 1024H142.155294a90.352941 90.352941 0 0 1-90.352941-90.352941V90.352941a90.352941 90.352941 0 0 1 90.352941-90.352941h739.689412a90.352941 90.352941 0 0 1 90.352941 90.352941v440.621177a30.117647 30.117647 0 1 1-60.235294 0V90.352941a30.117647 30.117647 0 0 0-30.117647-30.117647H142.155294a30.117647 30.117647 0 0 0-30.117647 30.117647v843.294118a30.117647 30.117647 0 0 0 30.117647 30.117647h363.218824a30.117647 30.117647 0 0 1 0 60.235294z" fill="#ffffff" p-id="17873"></path><path d="M785.468235 250.277647H238.531765a30.117647 30.117647 0 0 1 0-60.235294h546.93647a30.117647 30.117647 0 0 1 0 60.235294zM481.882353 696.922353H238.531765a30.117647 30.117647 0 1 1 0-60.235294H481.882353a30.117647 30.117647 0 0 1 0 60.235294zM481.882353 473.449412H238.531765a30.117647 30.117647 0 0 1 0-60.235294H481.882353a30.117647 30.117647 0 0 1 0 60.235294zM690.296471 473.449412h-84.329412a30.117647 30.117647 0 0 1 0-60.235294h84.329412a30.117647 30.117647 0 0 1 0 60.235294zM589.402353 871.303529v-15.058823c5.12-3.011765 10.541176-5.421176 15.661176-9.035294 13.251765-9.336471 30.117647-16.263529 30.117647-35.237647a47.284706 47.284706 0 0 0-30.117647-48.188236 19.576471 19.576471 0 0 1-12.047058-27.407058 305.694118 305.694118 0 0 1 16.564705-37.044706 10.24 10.24 0 0 1 14.456471-5.12 64.752941 64.752941 0 0 0 15.36 4.21647 40.357647 40.357647 0 0 0 51.2-31.623529 278.588235 278.588235 0 0 0 0-53.007059c13.854118-5.722353 30.117647-13.251765 47.284706-18.974118 11.444706-3.915294 16.865882 0 21.684706 12.950589a45.778824 45.778824 0 0 0 88.244706 0c3.312941-9.336471 9.637647-15.058824 18.371764-12.348236a222.268235 222.268235 0 0 1 41.562353 18.672942 18.371765 18.371765 0 0 1 7.529412 22.588235 67.463529 67.463529 0 0 0-2.409412 28.310588 45.176471 45.176471 0 0 0 63.849412 32.828235c14.757647-6.023529 20.781176-4.818824 30.117647 9.035294a124.687059 124.687059 0 0 1 12.047059 27.105883c6.023529 18.672941 3.614118 23.190588-14.456471 31.924706a51.802353 51.802353 0 0 0-27.708235 51.802353 40.658824 40.658824 0 0 0 30.117647 34.93647 17.468235 17.468235 0 0 1 13.854118 20.178824 180.705882 180.705882 0 0 1-12.649412 37.044706c-5.722353 12.950588-15.36 15.36-30.117647 11.143529a51.501176 51.501176 0 0 0-51.802353 8.131765 42.465882 42.465882 0 0 0-11.444706 42.465882 90.352941 90.352941 0 0 0 3.915294 12.047059 15.962353 15.962353 0 0 1-6.625882 20.781176 172.574118 172.574118 0 0 1-28.611765 14.456471c-21.684706 7.830588-25.6 5.722353-36.141176-14.155294a44.272941 44.272941 0 0 0-55.416471-24.395294 55.416471 55.416471 0 0 0-30.117647 30.117647 18.974118 18.974118 0 0 1-24.395294 12.047059 337.016471 337.016471 0 0 1-33.129412-12.047059 24.696471 24.696471 0 0 1-14.155294-37.948235 38.550588 38.550588 0 0 0-35.538823-53.609412c-6.625882 0-13.552941 0-20.178824 2.108235a30.117647 30.117647 0 0 1-34.635294-19.877647c-3.614118-11.143529-6.625882-20.781176-10.24-29.816471z m213.835294 35.237647A101.797647 101.797647 0 0 0 903.529412 804.442353a97.28 97.28 0 0 0-99.689412-95.774118 102.4 102.4 0 0 0-101.195294 96.978824 98.183529 98.183529 0 0 0 100.592941 100.894117z" fill="#ffffff" p-id="17874"></path></svg>